<?xml version="1.0" encoding="UTF-8" standalone="no"?>
<svg
   xmlns:dc="http://purl.org/dc/elements/1.1/"
   xmlns:cc="http://creativecommons.org/ns#"
   xmlns:rdf="http://www.w3.org/1999/02/22-rdf-syntax-ns#"
   xmlns:svg="http://www.w3.org/2000/svg"
   xmlns="http://www.w3.org/2000/svg"
   xmlns:sodipodi="http://sodipodi.sourceforge.net/DTD/sodipodi-0.dtd"
   xmlns:inkscape="http://www.inkscape.org/namespaces/inkscape"
   width="100mm"
   height="100mm"
   viewBox="0 0 100 100"
   version="1.1"
   id="svg8"
   inkscape:version="1.0 (4035a4fb49, 2020-05-01)"
   sodipodi:docname="crosshairs_wiht_contour.svg"
   inkscape:export-filename="C:\Users\a\Desktop\Virus Atlas Icons\mail_va_1.1.png"
   inkscape:export-xdpi="150"
   inkscape:export-ydpi="150">
  <defs
     id="defs2">
    <inkscape:path-effect
       hide_knots="false"
       only_selected="false"
       apply_with_radius="true"
       apply_no_radius="true"
       use_knot_distance="true"
       flexible="false"
       chamfer_steps="1"
       radius="4"
       mode="F"
       method="auto"
       unit="mm"
       satellites_param="F,0,0,1,0,4,0,1 @ F,0,0,1,0,4,0,1 @ F,0,0,1,0,0,0,1 @ F,0,0,1,0,4,0,1 @ F,0,0,1,0,4,0,1 @ F,0,0,1,0,0,0,1 @ F,0,0,1,0,4,0,1 @ F,0,0,1,0,4,0,1 @ F,0,0,1,0,0,0,1 @ F,0,0,1,0,4,0,1 @ F,0,0,1,0,4,0,1 @ F,0,1,1,0,0,0,1"
       lpeversion="1"
       is_visible="true"
       id="path-effect926"
       effect="fillet_chamfer" />
    <inkscape:path-effect
       hide_knots="false"
       only_selected="false"
       apply_with_radius="true"
       apply_no_radius="true"
       use_knot_distance="true"
       flexible="false"
       chamfer_steps="1"
       radius="1"
       mode="F"
       method="auto"
       unit="px"
       satellites_param="F,0,0,1,0,0,0,1 @ F,0,0,1,0,0,0,1 | F,0,0,1,0,0,0,1 @ F,0,0,1,0,0,0,1"
       lpeversion="1"
       is_visible="true"
       id="path-effect924"
       effect="fillet_chamfer" />
    <inkscape:path-effect
       effect="fillet_chamfer"
       id="path-effect905"
       is_visible="true"
       lpeversion="1"
       satellites_param="F,0,0,1,0,0,0,1 @ F,0,0,1,0,0.26458333,0,1 @ F,0,0,1,0,0.26458333,0,1"
       unit="px"
       method="auto"
       mode="F"
       radius="1"
       chamfer_steps="1"
       flexible="false"
       use_knot_distance="true"
       apply_no_radius="true"
       apply_with_radius="true"
       only_selected="false"
       hide_knots="false" />
    <inkscape:path-effect
       effect="fillet_chamfer"
       id="path-effect896"
       is_visible="true"
       lpeversion="1"
       satellites_param="F,0,0,1,0,4,0,1 @ F,0,0,1,0,4,0,1 @ F,0,0,1,0,4,0,1 @ F,0,0,1,0,4,0,1"
       unit="mm"
       method="auto"
       mode="F"
       radius="4"
       chamfer_steps="1"
       flexible="false"
       use_knot_distance="true"
       apply_no_radius="true"
       apply_with_radius="true"
       only_selected="false"
       hide_knots="false" />
  </defs>
  <sodipodi:namedview
     inkscape:bbox-nodes="true"
     inkscape:snap-bbox="true"
     id="base"
     pagecolor="#ffffff"
     bordercolor="#666666"
     borderopacity="1.0"
     inkscape:pageopacity="0.0"
     inkscape:pageshadow="2"
     inkscape:zoom="3.1406042"
     inkscape:cx="188.97638"
     inkscape:cy="188.97638"
     inkscape:document-units="mm"
     inkscape:current-layer="layer1"
     inkscape:document-rotation="0"
     showgrid="false"
     inkscape:window-width="2560"
     inkscape:window-height="1377"
     inkscape:window-x="2552"
     inkscape:window-y="-8"
     inkscape:window-maximized="1">
    <inkscape:grid
       type="xygrid"
       id="grid833"
       units="mm"
       spacingx="0.99999999"
       spacingy="0.99999999" />
  </sodipodi:namedview>
  <metadata
     id="metadata5">
    <rdf:RDF>
      <cc:Work
         rdf:about="">
        <dc:format>image/svg+xml</dc:format>
        <dc:type
           rdf:resource="http://purl.org/dc/dcmitype/StillImage" />
        <dc:title></dc:title>
      </cc:Work>
    </rdf:RDF>
  </metadata>
  <g
     inkscape:label="Layer 1"
     inkscape:groupmode="layer"
     id="layer1">
    <path
       inkscape:original-d="m 46,3 h 8 v 43 h 42.999998 v 8 H 54 V 96.999998 H 46 V 54 H 3 v -8 h 43 z"
       inkscape:path-effect="#path-effect926"
       sodipodi:nodetypes="ccccccccccccc"
       id="path924"
       d="m 50,3 a 4,4 45 0 1 4,4 l 0,39 h 38.999998 a 4,4 45 0 1 4,4 4,4 135 0 1 -4,4 H 54 v 38.999998 a 4,4 135 0 1 -4,4 4,4 45 0 1 -4,-4 V 54 H 7 A 4,4 45 0 1 3,50 4,4 135 0 1 7,46 H 46 V 7 a 4,4 135 0 1 4,-4 z"
       style="fill:#ffffff;stroke:none;stroke-width:0.264583px;stroke-linecap:butt;stroke-linejoin:miter;stroke-opacity:1;fill-opacity:1" />
    <path
       transform="scale(0.26458333)"
       d="M 188.97656 18.898438 C 184.78885 18.898438 181.41797 22.269315 181.41797 26.457031 L 181.41797 175.88477 A 15.11811 15.11811 0 0 1 188.97656 173.85742 A 15.11811 15.11811 0 0 1 196.53516 175.88477 L 196.53516 26.457031 C 196.53516 22.269315 193.16428 18.898438 188.97656 18.898438 z "
       style="fill:#333333;fill-opacity:1;stroke:none;stroke-width:30.2362;stroke-linejoin:round;stroke-miterlimit:4;stroke-dasharray:none;stop-color:#000000"
       id="rect854" />
    <circle
       r="2"
       cy="50"
       cx="50"
       id="path835"
       style="fill:#333333;stroke:none;stroke-width:8;stroke-linejoin:round;stroke-miterlimit:4;stroke-dasharray:none;stop-color:#000000" />
    <path
       id="rect854-3"
       style="fill:#333333;fill-opacity:1;stroke:none;stroke-width:7.99999;stroke-linejoin:round;stroke-miterlimit:4;stroke-dasharray:none;stop-color:#000000"
       d="m 50.000002,94.999999 c 1.107998,0 1.999876,-0.891877 1.999876,-1.999877 v -39.53609 a 3.9999999,3.9999999 0 0 1 -1.999876,0.536404 3.9999999,3.9999999 0 0 1 -1.99988,-0.536404 v 39.53609 c 0,1.108 0.89188,1.999877 1.99988,1.999877 z" />
    <path
       id="rect854-35"
       style="fill:#333333;fill-opacity:1;stroke:none;stroke-width:7.99999;stroke-linejoin:round;stroke-miterlimit:4;stroke-dasharray:none;stop-color:#000000"
       d="m 4.9999999,50.000001 c 0,1.107998 0.891877,1.999877 1.9998771,1.999877 h 39.536089 a 3.9999999,3.9999999 0 0 1 -0.536403,-1.999877 3.9999999,3.9999999 0 0 1 0.536403,-1.99988 H 6.999877 c -1.1080001,0 -1.9998771,0.89188 -1.9998771,1.99988 z" />
    <path
       id="rect854-0"
       style="fill:#333333;fill-opacity:1;stroke:none;stroke-width:7.99999;stroke-linejoin:round;stroke-miterlimit:4;stroke-dasharray:none;stop-color:#000000"
       d="m 94.999999,49.999999 c 0,-1.107998 -0.89187,-1.999877 -1.99987,-1.999877 H 53.464036 a 3.9999999,3.9999999 0 0 1 0.536403,1.999877 3.9999999,3.9999999 0 0 1 -0.536403,1.999879 h 39.536093 c 1.108,0 1.99987,-0.891879 1.99987,-1.999879 z" />
  </g>
</svg>
